<svg xmlns="http://www.w3.org/2000/svg" xmlns:xlink="http://www.w3.org/1999/xlink" width="20" height="20" viewBox="0 0 20 20">
  <defs>
    <clipPath id="clip-path">
      <rect id="Rectangle_12" data-name="Rectangle 12" width="20" height="20" transform="translate(466 951)" fill="#9c9c9c" stroke="#707070" stroke-width="1"/>
    </clipPath>
  </defs>
  <g id="Mask_Group_4" data-name="Mask Group 4" transform="translate(-466 -951)" clip-path="url(#clip-path)">
    <path id="__TEMP__SVG__" d="M17.573-.028c-.541-.008-1.8.176-3.893,1.579A14.842,14.842,0,0,0,10.1,1.125a15.076,15.076,0,0,0-3.958.517C3.134-.412,1.805.009,1.805.009a5.653,5.653,0,0,0-.168,4.175A6.046,6.046,0,0,0-.006,8.411a10.373,10.373,0,0,0,.51,3.48.369.369,0,0,0,.047.128,6.254,6.254,0,0,0,.268.61c.034.071.065.123.065.123,1.016,1.895,3.02,3.118,6.585,3.5l5.391.006c3.8-.377,5.626-1.6,6.467-3.512l.053-.124a9.255,9.255,0,0,0,.339-1.068,13.39,13.39,0,0,0,.275-3.147,6.167,6.167,0,0,0-1.842-4.5,5.84,5.84,0,0,0-.266-3.9,1.222,1.222,0,0,0-.314-.036Zm-4.249,6.86a2.818,2.818,0,0,1,2.194.741h0a3.767,3.767,0,0,1,1.12,2.6c0,4.506-2.9,4.629-6.473,4.629s-6.473-.625-6.473-4.629A3.758,3.758,0,0,1,4.8,7.589c1.164-1.231,3.133-.58,5.368-.58,1.147,0,2.225-.175,3.159-.177ZM6.664,8.159c-.744,0-1.347,1.006-1.347,2.247s.6,2.248,1.347,2.248,1.347-1.006,1.347-2.248S7.408,8.16,6.664,8.159Zm7.227,0c-.744,0-1.347,1.006-1.347,2.247s.6,2.248,1.347,2.248,1.347-1.006,1.347-2.248S14.635,8.16,13.891,8.159Z" transform="translate(466.006 952.883)" fill="#9c9c9c"/>
  </g>
</svg>
