<svg xmlns="http://www.w3.org/2000/svg" xmlns:xlink="http://www.w3.org/1999/xlink" width="20" height="20" viewBox="0 0 20 20">
  <defs>
    <clipPath id="clip-path">
      <rect id="Rectangle_14" data-name="Rectangle 14" width="20" height="20" transform="translate(466 849)" fill="#9c9c9c" stroke="#707070" stroke-width="1"/>
    </clipPath>
  </defs>
  <g id="Mask_Group_6" data-name="Mask Group 6" transform="translate(-466 -849)" clip-path="url(#clip-path)">
    <path id="__TEMP__SVG__" d="M15.027.027h-10A4.992,4.992,0,0,0,.036,5.005V15.049a4.992,4.992,0,0,0,4.995,4.978h10a4.992,4.992,0,0,0,4.995-4.978V5.005A4.991,4.991,0,0,0,15.027.028Zm3.145,15.021a3.143,3.143,0,0,1-3.145,3.134h-10a3.143,3.143,0,0,1-3.145-3.134V8.562H5.838a4.69,4.69,0,0,0-.451,2.009,4.744,4.744,0,0,0,9.488,0,4.681,4.681,0,0,0-.451-2.009h3.747v6.487ZM8.162,10.571a1.969,1.969,0,1,1,1.969,1.963A1.968,1.968,0,0,1,8.162,10.571Zm10.01-3.852H12.877a4.741,4.741,0,0,0-5.491,0h-5.5V5.005A3.143,3.143,0,0,1,5.031,1.871h10a3.143,3.143,0,0,1,3.145,3.134V6.718Zm-2-3.729H14.452a.556.556,0,0,0-.555.553V5.251a.555.555,0,0,0,.555.553h1.715a.556.556,0,0,0,.555-.553V3.542A.555.555,0,0,0,16.167,2.989Z" transform="translate(465.971 848.973)" fill="#9c9c9c"/>
  </g>
</svg>
